<svg width="28" height="28" viewBox="0 0 28 28" fill="none" xmlns="http://www.w3.org/2000/svg">
<circle cx="14" cy="14" r="14" fill="#2FB6F9"/>
<path d="M19.2394 20.7941H8.76057C8.53891 20.7941 8.35754 21.0489 8.35754 21.3603V22.4926C8.35754 22.804 8.53891 23.0588 8.76057 23.0588H19.2394C19.461 23.0588 19.6424 22.804 19.6424 22.4926V21.3603C19.6424 21.0489 19.461 20.7941 19.2394 20.7941ZM20.8515 9.47058C20.184 9.47058 19.6424 10.2314 19.6424 11.1691C19.6424 11.4204 19.6827 11.6539 19.7532 11.8698L17.9295 13.4055C17.5416 13.7311 17.0403 13.5471 16.8161 12.995L14.7632 7.94898C15.0327 7.63759 15.2091 7.17049 15.2091 6.6397C15.2091 5.70197 14.6675 4.94117 14 4.94117C13.3324 4.94117 12.7909 5.70197 12.7909 6.6397C12.7909 7.17049 12.9672 7.63759 13.2367 7.94898L11.1838 12.995C10.9596 13.5471 10.4558 13.7311 10.0704 13.4055L8.24923 11.8698C8.31724 11.6574 8.36006 11.4204 8.36006 11.1691C8.36006 10.2314 7.81849 9.47058 7.15097 9.47058C6.48345 9.47058 5.93936 10.2314 5.93936 11.1691C5.93936 12.1068 6.48093 12.8676 7.14845 12.8676C7.21394 12.8676 7.27944 12.8535 7.34241 12.8393L9.1636 19.6618H18.8363L20.6575 12.8393C20.7205 12.8535 20.786 12.8676 20.8515 12.8676C21.519 12.8676 22.0606 12.1068 22.0606 11.1691C22.0606 10.2314 21.519 9.47058 20.8515 9.47058Z" fill="white"/>
</svg>
